<svg width="743" height="515" viewBox="0 0 743 515" fill="none" xmlns="http://www.w3.org/2000/svg">
<path opacity="0.4" d="M48.3446 21.9606C54.4088 21.9606 59.3249 17.0445 59.3249 10.9803C59.3249 4.91605 54.4088 0 48.3446 0C42.2803 0 37.3643 4.91605 37.3643 10.9803C37.3643 17.0445 42.2803 21.9606 48.3446 21.9606Z" fill="white"/>
<path opacity="0.4" d="M465.596 21.9606C471.66 21.9606 476.576 17.0445 476.576 10.9803C476.576 4.91605 471.66 0 465.596 0C459.532 0 454.616 4.91605 454.616 10.9803C454.616 17.0445 459.532 21.9606 465.596 21.9606Z" fill="white"/>
<path opacity="0.4" d="M674.222 21.9606C680.286 21.9606 685.202 17.0445 685.202 10.9803C685.202 4.91605 680.286 0 674.222 0C668.157 0 663.241 4.91605 663.241 10.9803C663.241 17.0445 668.157 21.9606 674.222 21.9606Z" fill="white"/>
<path opacity="0.92" d="M117.123 170.655C117.123 138.313 90.9043 112.094 58.5616 112.094C26.2189 112.094 0 138.313 0 170.655V456.143C0 488.486 26.2189 514.705 58.5616 514.705C90.9043 514.705 117.123 488.486 117.123 456.143V170.655Z" fill="white"/>
<path opacity="0.12" d="M325.749 170.655C325.749 138.313 299.53 112.094 267.187 112.094C234.844 112.094 208.625 138.313 208.625 170.655V456.143C208.625 488.486 234.844 514.705 267.187 514.705C299.53 514.705 325.749 488.486 325.749 456.143V170.655Z" fill="white"/>
<path opacity="0.92" d="M534.374 170.655C534.374 138.313 508.155 112.094 475.813 112.094C443.47 112.094 417.251 138.313 417.251 170.655V456.143C417.251 488.486 443.47 514.705 475.813 514.705C508.155 514.705 534.374 488.486 534.374 456.143V170.655Z" fill="white"/>
<path opacity="0.92" d="M743 170.655C743 138.313 716.781 112.094 684.439 112.094C652.096 112.094 625.877 138.313 625.877 170.655V456.143C625.877 488.486 652.096 514.705 684.439 514.705C716.781 514.705 743 488.486 743 456.143V170.655Z" fill="white"/>
</svg>
